<svg width="14" height="15" viewBox="0 0 14 15" fill="none" xmlns="http://www.w3.org/2000/svg">
<path d="M7.33268 9.50264V10.896C6.7293 10.6826 6.08353 10.6172 5.44962 10.7052C4.8157 10.7931 4.21215 11.0319 3.68964 11.4014C3.16712 11.771 2.74091 12.2605 2.44679 12.8289C2.15267 13.3973 1.99923 14.028 1.99935 14.668L0.666016 14.6673C0.665809 13.8532 0.851963 13.0499 1.21021 12.3189C1.56847 11.5879 2.08931 10.9486 2.73283 10.45C3.37635 9.95139 4.12547 9.60672 4.92278 9.4424C5.7201 9.27807 6.54446 9.29845 7.33268 9.50197V9.50264ZM5.99935 8.66797C3.78935 8.66797 1.99935 6.87797 1.99935 4.66797C1.99935 2.45797 3.78935 0.667969 5.99935 0.667969C8.20935 0.667969 9.99935 2.45797 9.99935 4.66797C9.99935 6.87797 8.20935 8.66797 5.99935 8.66797ZM5.99935 7.33464C7.47268 7.33464 8.66602 6.1413 8.66602 4.66797C8.66602 3.19464 7.47268 2.0013 5.99935 2.0013C4.52602 2.0013 3.33268 3.19464 3.33268 4.66797C3.33268 6.1413 4.52602 7.33464 5.99935 7.33464ZM9.99935 11.3346V9.33464H11.3327V11.3346H13.3327V12.668H11.3327V14.668H9.99935V12.668H7.99935V11.3346H9.99935Z" fill="#0277BD"/>
</svg>
