<svg width="9" height="12" viewBox="0 0 9 12" fill="none" xmlns="http://www.w3.org/2000/svg">
<path d="M5.92998 6.00086L1.66732 3.15886V8.84286L5.92998 6.00086ZM7.91798 6.27819L0.851985 10.9889C0.801788 11.0223 0.743471 11.0414 0.683245 11.0443C0.623019 11.0472 0.563139 11.0337 0.509984 11.0052C0.456828 10.9768 0.412387 10.9344 0.381393 10.8827C0.3504 10.831 0.334016 10.7718 0.333984 10.7115V1.29019C0.334016 1.2299 0.3504 1.17074 0.381393 1.11902C0.412387 1.0673 0.456828 1.02496 0.509984 0.996499C0.563139 0.96804 0.623019 0.954531 0.683245 0.957412C0.743471 0.960293 0.801788 0.979456 0.851985 1.01286L7.91798 5.72353C7.96364 5.75397 8.00107 5.79521 8.02696 5.84359C8.05285 5.89197 8.06639 5.94599 8.06639 6.00086C8.06639 6.05573 8.05285 6.10975 8.02696 6.15813C8.00107 6.20651 7.96364 6.24775 7.91798 6.27819Z" fill="white"/>
</svg>
