<svg width="8" height="8" viewBox="0 0 8 8" fill="none" xmlns="http://www.w3.org/2000/svg">
<path d="M5.99935 0.666667C5.99935 0.489856 6.06959 0.320287 6.19461 0.195262C6.31963 0.070238 6.4892 0 6.66602 0C6.84283 0 7.0124 0.070238 7.13742 0.195262C7.26244 0.320287 7.33268 0.489856 7.33268 0.666667V7.33333C7.33268 7.51014 7.26244 7.67971 7.13742 7.80474C7.0124 7.92976 6.84283 8 6.66602 8C6.4892 8 6.31963 7.92976 6.19461 7.80474C6.06959 7.67971 5.99935 7.51014 5.99935 7.33333V0.666667ZM0.666016 0.666667C0.666016 0.489856 0.736254 0.320287 0.861278 0.195262C0.986302 0.070238 1.15587 0 1.33268 0C1.50949 0 1.67906 0.070238 1.80409 0.195262C1.92911 0.320287 1.99935 0.489856 1.99935 0.666667V7.33333C1.99935 7.51014 1.92911 7.67971 1.80409 7.80474C1.67906 7.92976 1.50949 8 1.33268 8C1.15587 8 0.986302 7.92976 0.861278 7.80474C0.736254 7.67971 0.666016 7.51014 0.666016 7.33333V0.666667Z" fill="white"/>
</svg>
