<svg width="14" height="14" viewBox="0 0 14 14" fill="none" xmlns="http://www.w3.org/2000/svg">
<path d="M2.64265 1.95404C3.85236 0.905811 5.39998 0.329805 7.00065 0.332038C10.6827 0.332038 13.6673 3.3167 13.6673 6.9987C13.6673 8.4227 13.2207 9.7427 12.4607 10.8254L10.334 6.9987H12.334C12.3341 5.95312 12.0268 4.93057 11.4504 4.05821C10.874 3.18584 10.0539 2.50214 9.0921 2.09212C8.13027 1.6821 7.06913 1.56384 6.04062 1.75205C5.01212 1.94026 4.06162 2.42664 3.30732 3.1507L2.64265 1.95404ZM11.3587 12.0434C10.1489 13.0916 8.60133 13.6676 7.00065 13.6654C3.31865 13.6654 0.333984 10.6807 0.333984 6.9987C0.333984 5.5747 0.780651 4.2547 1.54065 3.17204L3.66732 6.9987H1.66732C1.66723 8.04429 1.97449 9.06684 2.55088 9.9392C3.12726 10.8116 3.94736 11.4953 4.9092 11.9053C5.87103 12.3153 6.93217 12.4336 7.96068 12.2454C8.98918 12.0571 9.93968 11.5708 10.694 10.8467L11.3587 12.0434Z" fill="#5E6366"/>
</svg>
